<svg xmlns="http://www.w3.org/2000/svg" width="581" height="301" viewBox="0 0 581 301" fill="none"><rect width="46" height="46" rx="5" transform="matrix(1 0 -0.115457 0.993312 413.569 0.995605)" fill="#702CF2"></rect><path d="M438.068 32.7292H437.11C436.717 32.7292 436.429 32.4055 436.474 32.0152C436.519 31.6249 436.883 31.3013 437.276 31.3013H438.234C440.707 31.3013 442.492 29.7116 442.777 27.2556L443.663 19.6402C443.948 17.1842 442.532 15.5945 440.06 15.5945H430.477C428.004 15.5945 426.219 17.1842 425.933 19.6402L425.823 20.5921C425.777 20.9824 425.414 21.3061 425.021 21.3061C424.628 21.3061 424.34 20.9824 424.385 20.5921L424.496 19.6402C424.876 16.3656 427.346 14.1666 430.642 14.1666H440.226C443.522 14.1666 445.481 16.3656 445.1 19.6402L444.215 27.2556C443.834 30.5302 441.365 32.7292 438.068 32.7292Z" fill="white"></path><path d="M433.631 32.0723C433.276 32.0723 433.001 31.8058 432.994 31.4535C432.94 27.3793 430.297 24.3998 426.246 23.8762C425.859 23.8286 425.623 23.4669 425.716 23.0766C425.809 22.6863 426.206 22.4103 426.593 22.4579C431.295 23.0671 434.381 26.5226 434.434 31.2632C434.437 31.6534 434.117 32.0152 433.718 32.0628C433.698 32.0723 433.66 32.0723 433.631 32.0723Z" fill="white"></path><path d="M430.292 33.0909C429.938 33.0909 429.662 32.8243 429.655 32.4721C429.619 29.5688 427.729 27.4459 424.849 27.0747C424.461 27.0271 424.226 26.6654 424.319 26.2751C424.412 25.8848 424.808 25.6087 425.196 25.6563C428.736 26.1133 431.049 28.7215 431.096 32.2817C431.098 32.672 430.778 33.0337 430.38 33.0813C430.35 33.0909 430.321 33.0909 430.292 33.0909Z" fill="white"></path><path d="M426.58 33.7001C426.226 33.7001 425.95 33.4336 425.943 33.0813C425.929 31.7962 425.09 30.8538 423.815 30.692C423.428 30.6444 423.192 30.2827 423.285 29.8924C423.379 29.5021 423.775 29.2261 424.162 29.2736C426.069 29.5211 427.366 30.9776 427.392 32.9005C427.394 33.2908 427.074 33.6525 426.676 33.7001C426.647 33.7001 426.619 33.7001 426.58 33.7001Z" fill="white"></path><rect width="77" height="77" rx="5" transform="matrix(1 0 -0.0826343 0.99658 6.36298 223.995)" fill="#702CF2"></rect><path d="M45.3799 272.973L47.6167 275.403L52.8964 270.543" stroke="white" stroke-width="1.5" stroke-linecap="round" stroke-linejoin="round"></path><path d="M42.8068 259.896C42.6477 259.88 42.4552 259.88 42.2774 259.896C38.4701 259.768 35.6967 256.65 36.0148 252.814C36.3236 248.897 39.7796 245.715 43.7099 245.715C47.6401 245.715 50.5686 248.897 50.2438 252.814C49.9256 256.65 46.6192 259.768 42.8068 259.896Z" stroke="white" stroke-width="1.5" stroke-linecap="round" stroke-linejoin="round"></path><path d="M41.0839 277.385C38.1643 277.385 35.3217 276.65 33.2299 275.179C29.5626 272.589 29.9125 268.369 34.008 265.795C38.6634 262.853 45.8982 262.853 50.0658 265.795" stroke="white" stroke-width="1.5" stroke-linecap="round" stroke-linejoin="round"></path><rect width="58" height="58" rx="5" transform="matrix(1 0 -0.0660997 0.997813 522.832 187.995)" fill="#FF6401"></rect><path d="M541.434 229.394C538.763 229.394 536.743 227.236 536.92 224.571C537.096 221.906 539.402 219.748 542.073 219.748C544.743 219.748 546.763 221.906 546.586 224.571C546.41 227.236 544.104 229.394 541.434 229.394ZM541.953 221.557C540.285 221.557 538.842 222.907 538.732 224.571C538.622 226.235 539.886 227.585 541.553 227.585C543.221 227.585 544.664 226.235 544.774 224.571C544.884 222.907 543.62 221.557 541.953 221.557Z" fill="white"></path><path d="M542.25 212.514C539.748 212.514 537.853 210.489 538.018 207.993C538.183 205.497 540.348 203.471 542.849 203.471C545.35 203.471 547.246 205.497 547.08 207.993C546.915 210.489 544.751 212.514 542.25 212.514ZM542.729 205.28C541.231 205.28 539.93 206.498 539.83 207.993C539.731 209.488 540.871 210.706 542.37 210.706C543.868 210.706 545.169 209.488 545.268 207.993C545.367 206.498 544.227 205.28 542.729 205.28Z" fill="white"></path><path d="M559.166 212.514C556.665 212.514 554.769 210.489 554.935 207.993C555.1 205.497 557.264 203.471 559.766 203.471C562.267 203.471 564.163 205.497 563.997 207.993C563.832 210.489 561.668 212.514 559.166 212.514ZM559.646 205.28C558.147 205.28 556.846 206.498 556.747 207.993C556.648 209.488 557.788 210.706 559.286 210.706C560.785 210.706 562.086 209.488 562.185 207.993C562.284 206.498 561.144 205.28 559.646 205.28Z" fill="white"></path><path d="M541.848 220.954C541.775 220.954 541.704 220.942 541.62 220.93C541.145 220.809 540.887 220.315 541.04 219.833C541.874 217.277 544.3 215.492 546.946 215.492C546.958 215.492 546.958 215.492 546.971 215.492L551.114 215.504C551.126 215.504 551.126 215.504 551.138 215.504C553.821 215.504 556.338 213.804 557.388 211.272C557.588 210.802 558.113 210.549 558.573 210.718C559.033 210.886 559.253 211.393 559.053 211.863C557.7 215.131 554.429 217.277 550.982 217.313L546.839 217.301H546.827C545.002 217.301 543.338 218.531 542.762 220.291C542.639 220.689 542.247 220.954 541.848 220.954Z" fill="white"></path><path d="M541.691 220.954C541.195 220.954 540.812 220.544 540.844 220.05L541.403 211.61C541.436 211.116 541.874 210.706 542.37 210.706C542.865 210.706 543.249 211.116 543.216 211.61L542.657 220.05C542.624 220.544 542.186 220.954 541.691 220.954Z" fill="white"></path></svg>